<svg width="23" height="18" viewBox="0 0 23 18" fill="none" xmlns="http://www.w3.org/2000/svg">
<path d="M16.787 11.2286L22.4201 5.54001C22.6184 5.33973 22.6184 5.01501 22.4201 4.81476C22.2218 4.61451 21.9002 4.61448 21.7019 4.81476L16.0688 10.5034L10.4358 4.81476C10.2374 4.61448 9.91589 4.61448 9.71759 4.81476C9.51929 5.01504 9.51927 5.33975 9.71759 5.54001L15.3507 11.2286L9.71759 16.9172C9.51927 17.1175 9.51927 17.4422 9.71759 17.6424C9.81674 17.7426 9.94672 17.7926 10.0767 17.7926C10.2067 17.7926 10.3366 17.7426 10.4358 17.6424L16.0688 11.9539L21.7019 17.6424C21.8011 17.7426 21.931 17.7926 22.061 17.7926C22.191 17.7926 22.3209 17.7426 22.4201 17.6424C22.6184 17.4421 22.6184 17.1174 22.4201 16.9172L16.787 11.2286Z" fill="#6E6E6E"/>
</svg>
