<svg width="15" height="15" viewBox="0 0 15 15" fill="none" xmlns="http://www.w3.org/2000/svg">
<g clip-path="url(#clip0_88_308)">
<path d="M14.4086 5.07598C14.2486 4.8964 14.03 4.7796 13.7917 4.74644V4.74594L10.071 4.23196L8.59859 0.713704C8.3836 0.198729 7.79184 -0.044448 7.2769 0.170547C7.0314 0.27305 6.83621 0.468213 6.73374 0.713704L5.26135 4.23196L1.5406 4.74594C0.986257 4.8231 0.599417 5.33509 0.67658 5.88944C0.709742 6.12766 0.826541 6.34632 1.00612 6.50633L3.80943 9.00615L3.23344 12.9289C3.17104 13.3272 3.35399 13.724 3.69741 13.9353C4.036 14.1518 4.47153 14.1437 4.80183 13.9148L7.66614 11.9669L10.5304 13.9168C10.9926 14.2305 11.6216 14.1101 11.9353 13.6479C12.0779 13.4379 12.1363 13.1819 12.0989 12.9308L11.5229 9.00662L14.3262 6.5068C14.7441 6.13446 14.781 5.49384 14.4086 5.07598ZM10.6559 8.44167C10.5305 8.55372 10.4699 8.72129 10.4944 8.88765L11.0944 13.0874L7.94863 10.9485C7.77904 10.8333 7.55625 10.8333 7.38666 10.9485L4.22238 13.0744L4.83783 8.88566C4.86174 8.71997 4.8011 8.55331 4.67633 8.4417L1.67653 5.73787L5.68027 5.18539C5.85557 5.16123 6.005 5.04618 6.07323 4.88292L7.67211 1.09219C7.67393 1.09442 7.67528 1.09697 7.67613 1.09969L9.25852 4.88093C9.32675 5.04419 9.47621 5.15923 9.65148 5.1834L13.6602 5.76037L10.6559 8.44167Z" fill="#FFA800"/>
</g>
<defs>
<clipPath id="clip0_88_308">
<rect width="14" height="14" fill="white" transform="translate(0.66568 0.0922852)"/>
</clipPath>
</defs>
</svg>
