<svg width="16" height="16" viewBox="0 0 16 16" fill="none" xmlns="http://www.w3.org/2000/svg">
<g clip-path="url(#clip0_41_3)">
<path d="M15.2031 6.02717C15.1049 5.72343 14.8355 5.50771 14.5168 5.47898L10.1874 5.08587L8.47539 1.07885C8.34916 0.785184 8.06168 0.595093 7.74226 0.595093C7.42285 0.595093 7.13537 0.785184 7.00914 1.07953L5.29717 5.08587L0.967073 5.47898C0.648919 5.50839 0.380205 5.72343 0.28144 6.02717C0.182675 6.3309 0.273887 6.66405 0.514562 6.87405L3.78708 9.74407L2.82209 13.9949C2.75148 14.3074 2.87279 14.6305 3.13212 14.8179C3.27151 14.9187 3.4346 14.9699 3.59905 14.9699C3.74085 14.9699 3.8815 14.9317 4.00773 14.8562L7.74226 12.6242L11.4754 14.8562C11.7486 15.0205 12.093 15.0055 12.3517 14.8179C12.6112 14.6299 12.7324 14.3067 12.6617 13.9949L11.6968 9.74407L14.9693 6.87462C15.21 6.66405 15.3019 6.33147 15.2031 6.02717Z" fill="#FFA800"/>
</g>
<defs>
<clipPath id="clip0_41_3">
<rect width="15" height="15" fill="white" transform="translate(0.242188 0.273193)"/>
</clipPath>
</defs>
</svg>
