<svg width="15" height="15" viewBox="0 0 15 15" fill="none" xmlns="http://www.w3.org/2000/svg">
<g clip-path="url(#clip0_39_630)">
<path d="M14.5025 5.90739C14.4103 5.6239 14.1588 5.4232 13.8625 5.39639L9.82115 5.02949L8.22397 1.29017C8.10605 1.01544 7.83773 0.838135 7.53908 0.838135C7.24043 0.838135 6.97201 1.01544 6.85484 1.29017L5.25766 5.02949L1.21563 5.39639C0.919326 5.42374 0.668422 5.62444 0.575708 5.90739C0.483528 6.19087 0.568658 6.5018 0.792753 6.69834L3.84772 9.37711L2.94696 13.3444C2.88106 13.6361 2.99428 13.9377 3.23632 14.1127C3.36642 14.2072 3.51927 14.2544 3.67265 14.2544C3.80446 14.2544 3.93637 14.2194 4.05419 14.1489L7.53908 12.0652L11.0233 14.1489C11.2789 14.3016 11.6003 14.2876 11.8418 14.1127C12.0839 13.9377 12.1971 13.6361 12.1312 13.3444L11.2304 9.37711L14.2854 6.69834C14.5094 6.5018 14.5946 6.19151 14.5025 5.90739Z" fill="#E5E5E5"/>
</g>
<defs>
<clipPath id="clip0_39_630">
<rect width="14" height="14" fill="white" transform="translate(0.539062 0.537598)"/>
</clipPath>
</defs>
</svg>
